Coordinates
version=1
nRows=19
nColumns=24
inDegrees=yes

Units are S.I. units (second, meters, Newtons, ...)
Angles are in degrees.

endheader
time	pelvis_tilt	pelvis_list	pelvis_rotation	pelvis_tx	pelvis_ty	pelvis_tz	hip_flexion_r	hip_adduction_r	hip_rotation_r	knee_angle_r	ankle_angle_r	subtalar_angle_r	mtp_angle_r	hip_flexion_l	hip_adduction_l	hip_rotation_l	knee_angle_l	ankle_angle_l	subtalar_angle_l	mtp_angle_l	lumbar_extension	lumbar_bending	lumbar_rotation
      2.23000000	     13.98633319	     -5.45854127	      8.38530852	      0.99339803	      0.91091762	      0.25371421	     14.98755309	      7.52909433	     -5.41162420	    -32.09182068	     14.45777129	     -2.65190744	     35.01059585	    -12.19970938	     -8.46721792	      1.12574607	    -61.36489582	     13.73295251	      8.24800968	     47.63704062	    -28.63721695	     11.20085902	     -3.77900671
      2.23500000	     13.61118059	     -5.89532745	      8.71685402	      0.99951046	      0.91079366	      0.25353093	     15.09849354	      8.03109607	     -5.51864970	    -32.13430704	     14.87607282	     -2.97291090	     33.37659918	    -10.42861570	     -8.91933464	      1.68810513	    -63.37469113	     13.55609560	      7.65584333	     46.16184302	    -28.18769603	     11.75638515	     -3.74720488
      2.24000000	     13.23382470	     -6.35253335	      9.06003061	      1.00560221	      0.91073085	      0.25330913	     15.17120798	      8.54965217	     -5.64305922	    -32.06833941	     15.12660043	     -3.39764077	     33.09669187	     -8.63699292	     -9.37707149	      2.27157473	    -65.28537811	     13.38456329	      7.05842387	     45.93260877	    -27.72211779	     12.31675827	     -3.63235623
      2.24500000	     12.82858941	     -6.78871114	      9.36366430	      1.01165268	      0.91065672	      0.25312796	     15.26469882	      9.04648451	     -5.73283619	    -31.98343194	     15.40790463	     -3.82840766	     32.72938145	     -6.81807502	     -9.77237591	      2.83722194	    -67.10792134	     13.36244062	      6.42378493	     45.56752406	    -27.23044773	     12.83858922	     -3.55380465
      2.25000000	     12.42864787	     -7.21642510	      9.60712808	      1.01770304	      0.91068320	      0.25298761	     15.30749511	      9.54459520	     -5.75725561	    -31.81415817	     15.67877695	     -4.17150748	     32.27947267	     -5.02591080	    -10.13077089	      3.35166280	    -68.81418518	     13.40194407	      5.83242914	     45.08873548	    -26.74812914	     13.31767166	     -3.38863171
      2.25500000	     12.07351083	     -7.60018800	      9.78258771	      1.02376519	      0.91083960	      0.25286922	     15.28710137	      9.99770414	     -5.76850550	    -31.67017948	     16.12562670	     -4.24906937	     30.81037511	     -3.32328326	    -10.42093031	      3.79081595	    -70.40541988	     13.60933329	      5.33391892	     43.25773904	    -26.32886015	     13.73285055	     -3.20056323
      2.26000000	     11.81997418	     -8.00907621	     10.00296348	      1.02980600	      0.91123788	      0.25271782	     15.08748367	     10.50738508	     -5.77584382	    -31.34226652	     16.33658748	     -4.61692446	     30.58784806	     -1.72583105	    -10.75896502	      4.25086718	    -71.85488789	     13.78321257	      4.81235271	     43.11277833	    -26.00876296	     14.19409658	     -3.02455663
      2.26500000	     11.51074174	     -8.37035977	     10.16151465	      1.03586224	      0.91162097	      0.25260223	     14.93435627	     10.95823990	     -5.73209817	    -31.02385040	     16.57197392	     -4.88809920	     30.33290549	     -0.09796564	    -11.00964160	      4.66270428	    -73.19534707	     14.01275779	      4.28479664	     42.85419278	    -25.63307409	     14.57529537	     -2.84155581
      2.27000000	     11.22252423	     -8.73230597	     10.27263520	      1.04198988	      0.91211171	      0.25251683	     14.70907902	     11.42081063	     -5.64073956	    -30.62458112	     16.79767846	     -5.07310141	     29.96798790	      1.46686524	    -11.26199773	      5.00752947	    -74.40586457	     14.34811874	      3.83714359	     42.46156494	    -25.27868723	     14.94528855	     -2.64512153
      2.27500000	     10.96967089	     -9.02960550	     10.35458907	      1.04803132	      0.91272013	      0.25238542	     14.42807202	     11.81261547	     -5.55012979	    -30.22976020	     17.06668805	     -5.22395585	     29.41667044	      2.96705302	    -11.42457719	      5.32305861	    -75.50361747	     14.70863843	      3.41968148	     41.77838834	    -24.98310844	     15.22671092	     -2.34721598
      2.28000000	     10.85963469	     -9.33884822	     10.44625976	      1.05416407	      0.91363701	      0.25228775	     13.91638412	     12.26725659	     -5.40034916	    -29.67991557	     17.22514287	     -5.50192420	     29.21187826	      4.27256796	    -11.64839168	      5.58948573	    -76.43610799	     15.09100815	      3.04400360	     41.59933241	    -24.83326043	     15.55253279	     -2.15403995
      2.28500000	     10.70204931	     -9.60066817	     10.49290519	      1.06028874	      0.91451840	      0.25217091	     13.45339514	     12.64912492	     -5.24980814	    -29.16569457	     17.40220847	     -5.67853818	     29.02469875	      5.60144650	    -11.79687827	      5.81192478	    -77.27212733	     15.49508398	      2.69500583	     41.41171689	    -24.64589950	     15.80134053	     -1.90129407
      2.29000000	     10.59671574	     -9.84893800	     10.51338723	      1.06646628	      0.91553965	      0.25205520	     12.88365993	     13.03177816	     -5.05844058	    -28.57488435	     17.55388179	     -5.82877129	     28.87384263	      6.82969146	    -11.94427922	      5.98194686	    -77.97590171	     15.93585281	      2.41072529	     41.23523870	    -24.51439011	     16.03199590	     -1.62545339
      2.29500000	     10.48398970	    -10.06206010	     10.48566703	      1.07266186	      0.91659691	      0.25198135	     12.30626755	     13.37639167	     -4.82905063	    -27.98609360	     17.69737972	     -5.94956484	     28.71101269	      8.01962269	    -12.05842901	      6.08387339	    -78.56047224	     16.40323210	      2.18273475	     41.04599813	    -24.37966237	     16.20951900	     -1.35897737
      2.30000000	     10.49422873	    -10.20393701	     10.45012446	      1.07889324	      0.91790756	      0.25177634	     11.55496828	     13.64290005	     -4.63571338	    -27.37650994	     17.88650948	     -5.85098998	     28.68107023	      9.00885437	    -12.10663372	      6.12713239	    -78.99129881	     16.83661474	      1.89068458	     40.99842506	    -24.39633569	     16.32962320	     -1.05931320
      2.30500000	     10.42626463	    -10.39728823	     10.39785858	      1.08511722	      0.91907139	      0.25171713	     10.87162589	     13.98199297	     -4.34781481	    -26.69341287	     17.94021069	     -6.10400955	     28.54836234	     10.09514453	    -12.22195752	      6.17296325	    -79.36346869	     17.33960240	      1.84681266	     40.86541724	    -24.31770727	     16.47272260	     -0.75795509
      2.31000000	     10.42366213	    -10.50668186	     10.32763258	      1.09137534	      0.92038208	      0.25151494	     10.10421192	     14.20286597	     -4.13230045	    -26.06536780	     18.10991591	     -5.98620852	     28.52630717	     11.03942247	    -12.24217356	      6.14921175	    -79.59362894	     17.78817700	      1.66149694	     40.82391291	    -24.31853855	     16.54921802	     -0.49489103
      2.31500000	     10.44077402	    -10.64972888	     10.25616482	      1.09765405	      0.92168492	      0.25139999	      9.28214471	     14.48732419	     -3.83835937	    -25.33907286	     18.18563638	     -6.13563464	     28.43101494	     11.95510358	    -12.33117206	      6.11700258	    -79.74222917	     18.25531939	      1.69280696	     40.72935612	    -24.33272181	     16.63511649	     -0.14721244
      2.32000000	     10.46110653	    -10.74443414	     10.14050283	      1.10395393	      0.92302182	      0.25128352	      8.44594435	     14.70801131	     -3.53064763	    -24.63814831	     18.23823628	     -6.18804614	     28.33970648	     12.80270994	    -12.36951922	      6.01647770	    -79.77165324	     18.76423560	      1.70125860	     40.58480027	    -24.36939460	     16.67341945	      0.13515555
